<svg width="68" height="68" viewBox="0 0 68 68" fill="none" xmlns="http://www.w3.org/2000/svg">
<path fill-rule="evenodd" clip-rule="evenodd" d="M4.25 34C4.25 41.8902 7.38437 49.4572 12.9636 55.0364C18.5428 60.6156 26.1098 63.75 34 63.75C41.8902 63.75 49.4572 60.6156 55.0364 55.0364C60.6156 49.4572 63.75 41.8902 63.75 34C63.75 26.1098 60.6156 18.5428 55.0364 12.9636C49.4572 7.38437 41.8902 4.25 34 4.25C26.1098 4.25 18.5428 7.38437 12.9636 12.9636C7.38437 18.5428 4.25 26.1098 4.25 34ZM68 34C68 43.0174 64.4179 51.6654 58.0416 58.0416C51.6654 64.4179 43.0174 68 34 68C24.9826 68 16.3346 64.4179 9.95837 58.0416C3.58213 51.6654 0 43.0174 0 34C0 24.9826 3.58213 16.3346 9.95837 9.95837C16.3346 3.58213 24.9826 0 34 0C43.0174 0 51.6654 3.58213 58.0416 9.95837C64.4179 16.3346 68 24.9826 68 34ZM19.125 31.875C18.5614 31.875 18.0209 32.0989 17.6224 32.4974C17.2239 32.8959 17 33.4364 17 34C17 34.5636 17.2239 35.1041 17.6224 35.5026C18.0209 35.9011 18.5614 36.125 19.125 36.125H43.7453L34.6205 45.2455C34.4229 45.4431 34.2662 45.6776 34.1593 45.9358C34.0523 46.1939 33.9973 46.4706 33.9973 46.75C33.9973 47.0294 34.0523 47.3061 34.1593 47.5642C34.2662 47.8224 34.4229 48.0569 34.6205 48.2545C34.8181 48.4521 35.0526 48.6088 35.3108 48.7157C35.5689 48.8227 35.8456 48.8777 36.125 48.8777C36.4044 48.8777 36.6811 48.8227 36.9392 48.7157C37.1974 48.6088 37.4319 48.4521 37.6295 48.2545L50.3795 35.5045C50.5774 35.3071 50.7344 35.0726 50.8415 34.8144C50.9487 34.5563 51.0038 34.2795 51.0038 34C51.0038 33.7205 50.9487 33.4437 50.8415 33.1856C50.7344 32.9274 50.5774 32.6929 50.3795 32.4955L37.6295 19.7455C37.4319 19.5479 37.1974 19.3912 36.9392 19.2843C36.6811 19.1773 36.4044 19.1223 36.125 19.1223C35.8456 19.1223 35.5689 19.1773 35.3108 19.2843C35.0526 19.3912 34.8181 19.5479 34.6205 19.7455C34.4229 19.9431 34.2662 20.1776 34.1593 20.4358C34.0523 20.6939 33.9973 20.9706 33.9973 21.25C33.9973 21.5294 34.0523 21.8061 34.1593 22.0642C34.2662 22.3224 34.4229 22.5569 34.6205 22.7545L43.7453 31.875H19.125Z" fill="#C4C4C4"/>
</svg>
