<svg width="173" height="172" viewBox="0 0 173 172" fill="none" xmlns="http://www.w3.org/2000/svg">
<mask id="mask0_351_9256" style="mask-type:luminance" maskUnits="userSpaceOnUse" x="0" y="0" width="173" height="172">
<path d="M86.099 0C84.6875 0 83.2813 0.036459 81.875 0.109375C80.4688 0.177084 79.0625 0.286459 77.6615 0.421875C76.2604 0.5625 74.8646 0.739583 73.4688 0.942708C72.0781 1.15104 70.6927 1.39583 69.3073 1.67188C67.9271 1.94792 66.5521 2.25521 65.1875 2.59896C63.8229 2.94271 62.4635 3.31771 61.1198 3.72917C59.7708 4.13542 58.4323 4.57812 57.1094 5.05208C55.7813 5.53125 54.4688 6.03646 53.1667 6.57292C51.8646 7.11458 50.5781 7.68229 49.3073 8.28646C48.0365 8.89063 46.776 9.52083 45.5365 10.1875C44.2917 10.849 43.0677 11.5417 41.8594 12.2656C40.651 12.9896 39.4635 13.7448 38.2917 14.526C37.1198 15.3073 35.9688 16.1146 34.8385 16.9531C33.7083 17.7917 32.599 18.6562 31.5104 19.5521C30.4219 20.4427 29.3542 21.3594 28.3125 22.3073C27.2656 23.25 26.25 24.2188 25.25 25.2135C24.2552 26.2083 23.2865 27.2292 22.3385 28.2708C21.3906 29.3125 20.474 30.375 19.5781 31.4635C18.6875 32.5521 17.8177 33.6562 16.9792 34.7865C16.1406 35.9167 15.3281 37.0677 14.5469 38.2344C13.7656 39.4063 13.0104 40.5938 12.2865 41.7969C11.5625 43.0052 10.8646 44.2292 10.2031 45.4688C9.53646 46.7083 8.90104 47.9635 8.30208 49.2344C7.69792 50.5052 7.125 51.7917 6.58333 53.0885C6.04687 54.3906 5.53646 55.7031 5.0625 57.026C4.58854 58.349 4.14583 59.6823 3.73438 61.0313C3.32292 62.375 2.94792 63.7292 2.60417 65.0938C2.26042 66.4583 1.94792 67.8281 1.67188 69.2083C1.39583 70.5885 1.15625 71.974 0.947917 73.3646C0.739583 74.7552 0.567709 76.151 0.427083 77.5469C0.286458 78.9479 0.182291 80.349 0.109375 81.7552C0.0364577 83.1615 0 84.5677 0 85.974C4.75 200.021 167.464 199.99 172.193 85.974C172.193 84.5677 172.156 83.1615 172.089 81.7552C172.016 80.349 171.911 78.9479 171.771 77.5469C171.63 76.151 171.458 74.7552 171.25 73.3646C171.042 71.974 170.797 70.5885 170.521 69.2083C170.245 67.8281 169.938 66.4583 169.594 65.0938C169.25 63.7292 168.87 62.375 168.464 61.026C168.052 59.6823 167.609 58.349 167.135 57.026C166.656 55.6979 166.151 54.3906 165.609 53.0885C165.068 51.7917 164.5 50.5052 163.896 49.2344C163.292 47.9635 162.661 46.7083 161.995 45.4688C161.328 44.2292 160.635 43.0052 159.911 41.7969C159.188 40.5938 158.432 39.4063 157.651 38.2344C156.865 37.0677 156.057 35.9167 155.214 34.7865C154.375 33.6562 153.51 32.5521 152.615 31.4635C151.724 30.375 150.802 29.3125 149.854 28.2708C148.911 27.2292 147.938 26.2083 146.943 25.2135C145.948 24.2188 144.927 23.25 143.885 22.3073C142.839 21.3594 141.776 20.4427 140.688 19.5521C139.599 18.6562 138.49 17.7917 137.354 16.9531C136.224 16.1146 135.073 15.3073 133.901 14.526C132.734 13.7448 131.542 12.9896 130.333 12.2656C129.125 11.5417 127.901 10.849 126.661 10.1875C125.417 9.52083 124.161 8.89063 122.891 8.28646C121.615 7.68229 120.328 7.11458 119.026 6.57292C117.729 6.03646 116.411 5.53125 115.089 5.05208C113.76 4.57812 112.427 4.13542 111.078 3.72917C109.729 3.31771 108.375 2.94271 107.005 2.59896C105.641 2.25521 104.266 1.94792 102.885 1.67188C101.505 1.39583 100.12 1.15104 98.724 0.942708C97.3333 0.739583 95.9323 0.5625 94.5313 0.421875C93.1302 0.286459 91.7292 0.177084 90.3229 0.109375C88.9115 0.036459 87.5052 0 86.099 0ZM135.609 79.4583L123.771 119.938C123.443 121.031 122.948 122.042 122.297 122.974C121.641 123.906 120.859 124.714 119.943 125.396C119.031 126.078 118.031 126.599 116.953 126.958C115.87 127.323 114.76 127.505 113.62 127.51H58.6094C57.4688 127.505 56.3542 127.323 55.276 126.958C54.1927 126.599 53.1979 126.078 52.2813 125.396C51.3698 124.714 50.5833 123.906 49.9323 122.974C49.276 122.042 48.7865 121.031 48.4583 119.938L36.5833 79.4844C36.3802 78.8073 36.2708 78.1146 36.2552 77.4063C36.2396 76.6979 36.3177 76 36.4896 75.3125C36.6615 74.6302 36.9219 73.974 37.2708 73.3594C37.6198 72.7448 38.0417 72.1823 38.5417 71.6823C39.0417 71.1771 39.599 70.75 40.2135 70.3958C40.8281 70.0417 41.4792 69.776 42.1615 69.599C42.849 69.4219 43.5469 69.3333 44.2552 69.3438C44.9635 69.3542 45.6615 69.4583 46.3438 69.651L60.3906 73.6667C61 73.8385 61.625 73.9063 62.2656 73.8646C62.901 73.8281 63.5104 73.6823 64.099 73.4375C64.6875 73.1927 65.2135 72.8542 65.6875 72.4271C66.1615 72 66.5521 71.5104 66.8542 70.9479L79.151 48.5365C79.4896 47.9167 79.9115 47.349 80.4063 46.8385C80.8958 46.3333 81.4531 45.8958 82.0625 45.5365C82.6719 45.1771 83.3229 44.901 84.0052 44.7135C84.6927 44.526 85.3854 44.4323 86.099 44.4323C86.8073 44.4323 87.5052 44.526 88.1875 44.7135C88.875 44.901 89.5208 45.1771 90.1354 45.5365C90.7448 45.8958 91.2969 46.3333 91.7917 46.8385C92.2865 47.349 92.7031 47.9167 93.0469 48.5365L105.344 70.9479C105.646 71.5104 106.036 72 106.505 72.4271C106.979 72.8542 107.51 73.1927 108.099 73.4375C108.682 73.6823 109.297 73.8281 109.932 73.8646C110.568 73.9063 111.193 73.8385 111.807 73.6667L125.854 69.651C126.531 69.4688 127.224 69.375 127.927 69.3698C128.63 69.3698 129.323 69.4583 130 69.6406C130.682 69.8229 131.328 70.0885 131.938 70.4375C132.547 70.7917 133.099 71.2188 133.594 71.7135C134.089 72.2135 134.51 72.7656 134.859 73.3802C135.208 73.9896 135.474 74.6354 135.651 75.3125C135.828 75.9948 135.911 76.6875 135.906 77.3854C135.901 78.0885 135.802 78.7813 135.609 79.4583ZM114.281 82.3542L126.339 78.9115L115.068 117.406C114.974 117.724 114.786 117.979 114.521 118.172C114.25 118.37 113.953 118.464 113.62 118.464H58.6094C58.276 118.464 57.974 118.37 57.7083 118.172C57.4375 117.979 57.2552 117.724 57.1563 117.406L45.8594 78.9115L57.9115 82.3542C58.7083 82.5833 59.5156 82.7448 60.3333 82.8385C61.1563 82.9323 61.9792 82.9583 62.8073 82.9115C63.6302 82.8646 64.4479 82.75 65.2552 82.5625C66.0573 82.3802 66.8438 82.125 67.6094 81.8073C68.3698 81.4896 69.099 81.1094 69.7969 80.6667C70.4948 80.2188 71.151 79.724 71.7656 79.1667C72.375 78.6146 72.9375 78.0104 73.4479 77.3594C73.9583 76.7083 74.4063 76.0208 74.7969 75.2917L86.099 54.7188L97.3646 75.2917C97.7604 76.0208 98.2135 76.7083 98.724 77.3594C99.2396 78.0052 99.8021 78.6094 100.417 79.1615C101.031 79.7135 101.688 80.2135 102.385 80.6563C103.083 81.099 103.818 81.4792 104.578 81.7969C105.344 82.1146 106.13 82.3698 106.932 82.5573C107.74 82.7396 108.557 82.8542 109.385 82.9063C110.208 82.9531 111.036 82.9271 111.859 82.8333C112.677 82.7448 113.49 82.5833 114.281 82.3542Z" fill="white"/>
</mask>
<g mask="url(#mask0_351_9256)">
<path d="M0 0V200H172.193V0H0Z" fill="url(#paint0_linear_351_9256)"/>
</g>
<defs>
<linearGradient id="paint0_linear_351_9256" x1="0.000526354" y1="85.7491" x2="172.195" y2="85.7491" gradientUnits="userSpaceOnUse">
<stop stop-color="#FFDE00"/>
<stop offset="0.00390625" stop-color="#FFDE00"/>
<stop offset="0.0078125" stop-color="#FFDD00"/>
<stop offset="0.0117187" stop-color="#FFDD00"/>
<stop offset="0.015625" stop-color="#FFDC00"/>
<stop offset="0.0195312" stop-color="#FFDC00"/>
<stop offset="0.0234375" stop-color="#FFDB00"/>
<stop offset="0.0273438" stop-color="#FFDA00"/>
<stop offset="0.03125" stop-color="#FFDA00"/>
<stop offset="0.0351562" stop-color="#FFD900"/>
<stop offset="0.0390625" stop-color="#FFD900"/>
<stop offset="0.0429687" stop-color="#FFD800"/>
<stop offset="0.046875" stop-color="#FFD800"/>
<stop offset="0.0507812" stop-color="#FFD700"/>
<stop offset="0.0546875" stop-color="#FFD700"/>
<stop offset="0.0585938" stop-color="#FFD600"/>
<stop offset="0.0625" stop-color="#FFD600"/>
<stop offset="0.0664062" stop-color="#FFD500"/>
<stop offset="0.0703125" stop-color="#FFD500"/>
<stop offset="0.0742188" stop-color="#FFD400"/>
<stop offset="0.078125" stop-color="#FFD400"/>
<stop offset="0.0820312" stop-color="#FFD300"/>
<stop offset="0.0859375" stop-color="#FFD300"/>
<stop offset="0.0898437" stop-color="#FFD200"/>
<stop offset="0.09375" stop-color="#FFD200"/>
<stop offset="0.0976562" stop-color="#FFD100"/>
<stop offset="0.101562" stop-color="#FFD100"/>
<stop offset="0.105469" stop-color="#FFD000"/>
<stop offset="0.109375" stop-color="#FFD000"/>
<stop offset="0.113281" stop-color="#FFCF00"/>
<stop offset="0.117187" stop-color="#FFCF00"/>
<stop offset="0.121094" stop-color="#FFCE00"/>
<stop offset="0.125" stop-color="#FFCD00"/>
<stop offset="0.128906" stop-color="#FFCD00"/>
<stop offset="0.132812" stop-color="#FFCC00"/>
<stop offset="0.136719" stop-color="#FFCC00"/>
<stop offset="0.140625" stop-color="#FFCB00"/>
<stop offset="0.144531" stop-color="#FFCB00"/>
<stop offset="0.148437" stop-color="#FFCA00"/>
<stop offset="0.152344" stop-color="#FFCA00"/>
<stop offset="0.15625" stop-color="#FFC900"/>
<stop offset="0.160156" stop-color="#FFC900"/>
<stop offset="0.164062" stop-color="#FFC800"/>
<stop offset="0.167969" stop-color="#FFC800"/>
<stop offset="0.171875" stop-color="#FFC700"/>
<stop offset="0.175781" stop-color="#FFC700"/>
<stop offset="0.179687" stop-color="#FFC600"/>
<stop offset="0.183594" stop-color="#FFC600"/>
<stop offset="0.1875" stop-color="#FFC500"/>
<stop offset="0.191406" stop-color="#FFC500"/>
<stop offset="0.195312" stop-color="#FFC400"/>
<stop offset="0.199219" stop-color="#FFC400"/>
<stop offset="0.203125" stop-color="#FFC300"/>
<stop offset="0.207031" stop-color="#FFC300"/>
<stop offset="0.210937" stop-color="#FFC200"/>
<stop offset="0.214844" stop-color="#FFC200"/>
<stop offset="0.21875" stop-color="#FFC100"/>
<stop offset="0.222656" stop-color="#FFC000"/>
<stop offset="0.226562" stop-color="#FFC000"/>
<stop offset="0.230469" stop-color="#FFBF00"/>
<stop offset="0.234375" stop-color="#FFBF00"/>
<stop offset="0.238281" stop-color="#FFBE00"/>
<stop offset="0.242187" stop-color="#FFBE00"/>
<stop offset="0.246094" stop-color="#FEBD00"/>
<stop offset="0.25" stop-color="#FEBD00"/>
<stop offset="0.253906" stop-color="#FEBC00"/>
<stop offset="0.257813" stop-color="#FEBC00"/>
<stop offset="0.261719" stop-color="#FEBB00"/>
<stop offset="0.265625" stop-color="#FEBB00"/>
<stop offset="0.269531" stop-color="#FEBA00"/>
<stop offset="0.273438" stop-color="#FEBA00"/>
<stop offset="0.277344" stop-color="#FEB900"/>
<stop offset="0.28125" stop-color="#FEB900"/>
<stop offset="0.285156" stop-color="#FEB800"/>
<stop offset="0.289062" stop-color="#FEB800"/>
<stop offset="0.292969" stop-color="#FEB700"/>
<stop offset="0.296875" stop-color="#FEB700"/>
<stop offset="0.300781" stop-color="#FEB600"/>
<stop offset="0.304688" stop-color="#FEB600"/>
<stop offset="0.308594" stop-color="#FEB500"/>
<stop offset="0.3125" stop-color="#FEB500"/>
<stop offset="0.316406" stop-color="#FEB400"/>
<stop offset="0.320312" stop-color="#FEB300"/>
<stop offset="0.324219" stop-color="#FEB300"/>
<stop offset="0.328125" stop-color="#FEB200"/>
<stop offset="0.332031" stop-color="#FEB200"/>
<stop offset="0.335938" stop-color="#FEB100"/>
<stop offset="0.339844" stop-color="#FEB100"/>
<stop offset="0.34375" stop-color="#FEB000"/>
<stop offset="0.347656" stop-color="#FEB000"/>
<stop offset="0.351562" stop-color="#FEAF00"/>
<stop offset="0.355469" stop-color="#FEAF00"/>
<stop offset="0.359375" stop-color="#FEAE00"/>
<stop offset="0.363281" stop-color="#FEAE00"/>
<stop offset="0.367188" stop-color="#FEAD00"/>
<stop offset="0.371094" stop-color="#FEAD00"/>
<stop offset="0.375" stop-color="#FEAC00"/>
<stop offset="0.378906" stop-color="#FEAC00"/>
<stop offset="0.382812" stop-color="#FEAB00"/>
<stop offset="0.386719" stop-color="#FEAB00"/>
<stop offset="0.390625" stop-color="#FEAA00"/>
<stop offset="0.394531" stop-color="#FEAA00"/>
<stop offset="0.398438" stop-color="#FEA900"/>
<stop offset="0.402344" stop-color="#FEA900"/>
<stop offset="0.40625" stop-color="#FEA800"/>
<stop offset="0.410156" stop-color="#FEA800"/>
<stop offset="0.414062" stop-color="#FEA700"/>
<stop offset="0.417969" stop-color="#FEA600"/>
<stop offset="0.421875" stop-color="#FEA600"/>
<stop offset="0.425781" stop-color="#FEA500"/>
<stop offset="0.429688" stop-color="#FEA500"/>
<stop offset="0.433594" stop-color="#FEA400"/>
<stop offset="0.4375" stop-color="#FEA400"/>
<stop offset="0.441406" stop-color="#FEA300"/>
<stop offset="0.445312" stop-color="#FEA300"/>
<stop offset="0.449219" stop-color="#FEA200"/>
<stop offset="0.453125" stop-color="#FEA200"/>
<stop offset="0.457031" stop-color="#FEA100"/>
<stop offset="0.460938" stop-color="#FEA100"/>
<stop offset="0.464844" stop-color="#FEA000"/>
<stop offset="0.46875" stop-color="#FEA000"/>
<stop offset="0.472656" stop-color="#FE9F00"/>
<stop offset="0.476562" stop-color="#FE9F00"/>
<stop offset="0.480469" stop-color="#FE9E00"/>
<stop offset="0.484375" stop-color="#FE9E00"/>
<stop offset="0.488281" stop-color="#FE9D00"/>
<stop offset="0.492188" stop-color="#FE9D00"/>
<stop offset="0.496094" stop-color="#FE9C00"/>
<stop offset="0.5" stop-color="#FE9C00"/>
<stop offset="0.503906" stop-color="#FE9B00"/>
<stop offset="0.507812" stop-color="#FE9B00"/>
<stop offset="0.511719" stop-color="#FE9A00"/>
<stop offset="0.515625" stop-color="#FE9900"/>
<stop offset="0.519531" stop-color="#FE9900"/>
<stop offset="0.523438" stop-color="#FE9800"/>
<stop offset="0.527344" stop-color="#FE9800"/>
<stop offset="0.53125" stop-color="#FE9700"/>
<stop offset="0.535156" stop-color="#FE9700"/>
<stop offset="0.539062" stop-color="#FE9600"/>
<stop offset="0.542969" stop-color="#FE9600"/>
<stop offset="0.546875" stop-color="#FE9500"/>
<stop offset="0.550781" stop-color="#FE9500"/>
<stop offset="0.554687" stop-color="#FE9400"/>
<stop offset="0.558594" stop-color="#FE9400"/>
<stop offset="0.5625" stop-color="#FE9300"/>
<stop offset="0.566406" stop-color="#FE9300"/>
<stop offset="0.570312" stop-color="#FE9200"/>
<stop offset="0.574219" stop-color="#FE9200"/>
<stop offset="0.578125" stop-color="#FE9100"/>
<stop offset="0.582031" stop-color="#FE9100"/>
<stop offset="0.585937" stop-color="#FE9000"/>
<stop offset="0.589844" stop-color="#FE9000"/>
<stop offset="0.59375" stop-color="#FE8F00"/>
<stop offset="0.597656" stop-color="#FE8F00"/>
<stop offset="0.601562" stop-color="#FE8E00"/>
<stop offset="0.605469" stop-color="#FE8E00"/>
<stop offset="0.609375" stop-color="#FE8D00"/>
<stop offset="0.613281" stop-color="#FE8C00"/>
<stop offset="0.617187" stop-color="#FE8C00"/>
<stop offset="0.621094" stop-color="#FE8B00"/>
<stop offset="0.625" stop-color="#FE8B00"/>
<stop offset="0.628906" stop-color="#FE8A00"/>
<stop offset="0.632812" stop-color="#FE8A00"/>
<stop offset="0.636719" stop-color="#FE8900"/>
<stop offset="0.640625" stop-color="#FE8900"/>
<stop offset="0.644531" stop-color="#FE8800"/>
<stop offset="0.648438" stop-color="#FE8800"/>
<stop offset="0.652344" stop-color="#FE8700"/>
<stop offset="0.65625" stop-color="#FE8700"/>
<stop offset="0.660156" stop-color="#FE8600"/>
<stop offset="0.664062" stop-color="#FE8600"/>
<stop offset="0.667969" stop-color="#FE8500"/>
<stop offset="0.671875" stop-color="#FE8500"/>
<stop offset="0.675781" stop-color="#FE8400"/>
<stop offset="0.679688" stop-color="#FE8400"/>
<stop offset="0.683594" stop-color="#FE8300"/>
<stop offset="0.6875" stop-color="#FE8300"/>
<stop offset="0.691406" stop-color="#FE8200"/>
<stop offset="0.695312" stop-color="#FE8200"/>
<stop offset="0.699219" stop-color="#FE8100"/>
<stop offset="0.703125" stop-color="#FE8100"/>
<stop offset="0.707031" stop-color="#FE8000"/>
<stop offset="0.710938" stop-color="#FE7F00"/>
<stop offset="0.714844" stop-color="#FE7F00"/>
<stop offset="0.71875" stop-color="#FE7E00"/>
<stop offset="0.722656" stop-color="#FE7E00"/>
<stop offset="0.726562" stop-color="#FE7D00"/>
<stop offset="0.730469" stop-color="#FE7D00"/>
<stop offset="0.734375" stop-color="#FD7C00"/>
<stop offset="0.738281" stop-color="#FD7C00"/>
<stop offset="0.742188" stop-color="#FD7B00"/>
<stop offset="0.746094" stop-color="#FD7B00"/>
<stop offset="0.75" stop-color="#FD7A00"/>
<stop offset="0.753906" stop-color="#FD7A00"/>
<stop offset="0.757812" stop-color="#FD7900"/>
<stop offset="0.761719" stop-color="#FD7900"/>
<stop offset="0.765625" stop-color="#FD7800"/>
<stop offset="0.769531" stop-color="#FD7800"/>
<stop offset="0.773438" stop-color="#FD7700"/>
<stop offset="0.777344" stop-color="#FD7700"/>
<stop offset="0.78125" stop-color="#FD7600"/>
<stop offset="0.785156" stop-color="#FD7600"/>
<stop offset="0.789062" stop-color="#FD7500"/>
<stop offset="0.792969" stop-color="#FD7500"/>
<stop offset="0.796875" stop-color="#FD7400"/>
<stop offset="0.800781" stop-color="#FD7400"/>
<stop offset="0.804688" stop-color="#FD7300"/>
<stop offset="0.808594" stop-color="#FD7200"/>
<stop offset="0.8125" stop-color="#FD7200"/>
<stop offset="0.816406" stop-color="#FD7100"/>
<stop offset="0.820312" stop-color="#FD7100"/>
<stop offset="0.824219" stop-color="#FD7000"/>
<stop offset="0.828125" stop-color="#FD7000"/>
<stop offset="0.832031" stop-color="#FD6F00"/>
<stop offset="0.835938" stop-color="#FD6F00"/>
<stop offset="0.839844" stop-color="#FD6E00"/>
<stop offset="0.84375" stop-color="#FD6E00"/>
<stop offset="0.847656" stop-color="#FD6D00"/>
<stop offset="0.851562" stop-color="#FD6D00"/>
<stop offset="0.855469" stop-color="#FD6C00"/>
<stop offset="0.859375" stop-color="#FD6C00"/>
<stop offset="0.863281" stop-color="#FD6B00"/>
<stop offset="0.867188" stop-color="#FD6B00"/>
<stop offset="0.871094" stop-color="#FD6A00"/>
<stop offset="0.875" stop-color="#FD6A00"/>
<stop offset="0.878906" stop-color="#FD6900"/>
<stop offset="0.882812" stop-color="#FD6900"/>
<stop offset="0.886719" stop-color="#FD6800"/>
<stop offset="0.890625" stop-color="#FD6800"/>
<stop offset="0.894531" stop-color="#FD6700"/>
<stop offset="0.898438" stop-color="#FD6700"/>
<stop offset="0.902344" stop-color="#FD6600"/>
<stop offset="0.90625" stop-color="#FD6500"/>
<stop offset="0.910156" stop-color="#FD6500"/>
<stop offset="0.914062" stop-color="#FD6400"/>
<stop offset="0.917969" stop-color="#FD6400"/>
<stop offset="0.921875" stop-color="#FD6300"/>
<stop offset="0.925781" stop-color="#FD6300"/>
<stop offset="0.929688" stop-color="#FD6200"/>
<stop offset="0.933594" stop-color="#FD6200"/>
<stop offset="0.9375" stop-color="#FD6100"/>
<stop offset="0.941406" stop-color="#FD6100"/>
<stop offset="0.945312" stop-color="#FD6000"/>
<stop offset="0.949219" stop-color="#FD6000"/>
<stop offset="0.953125" stop-color="#FD5F00"/>
<stop offset="0.957031" stop-color="#FD5F00"/>
<stop offset="0.960938" stop-color="#FD5E00"/>
<stop offset="0.964844" stop-color="#FD5E00"/>
<stop offset="0.96875" stop-color="#FD5D00"/>
<stop offset="0.972656" stop-color="#FD5D00"/>
<stop offset="0.976562" stop-color="#FD5C00"/>
<stop offset="0.980469" stop-color="#FD5C00"/>
<stop offset="0.984375" stop-color="#FD5B00"/>
<stop offset="0.988281" stop-color="#FD5B00"/>
<stop offset="0.992188" stop-color="#FD5A00"/>
<stop offset="0.996094" stop-color="#FD5A00"/>
<stop offset="1" stop-color="#FD5900"/>
</linearGradient>
</defs>
</svg>
