<svg width="139" height="105" viewBox="0 0 139 105" fill="none" xmlns="http://www.w3.org/2000/svg">
<path d="M0 17.75C0 13.1419 1.83058 8.72246 5.08902 5.46402C8.34746 2.20557 12.7669 0.375 17.375 0.375H121.625C126.233 0.375 130.653 2.20557 133.911 5.46402C137.169 8.72246 139 13.1419 139 17.75V87.25C139 91.8581 137.169 96.2775 133.911 99.536C130.653 102.794 126.233 104.625 121.625 104.625H17.375C12.7669 104.625 8.34746 102.794 5.08902 99.536C1.83058 96.2775 0 91.8581 0 87.25V17.75ZM17.375 9.0625C15.0709 9.0625 12.8612 9.97779 11.232 11.607C9.60279 13.2362 8.6875 15.4459 8.6875 17.75V28.4375H130.312V17.75C130.312 15.4459 129.397 13.2362 127.768 11.607C126.139 9.97779 123.929 9.0625 121.625 9.0625H17.375ZM130.312 41.8125H8.6875V87.25C8.6875 89.5541 9.60279 91.7638 11.232 93.393C12.8612 95.0222 15.0709 95.9375 17.375 95.9375H121.625C123.929 95.9375 126.139 95.0222 127.768 93.393C129.397 91.7638 130.312 89.5541 130.312 87.25V41.8125Z" fill="#09203F"/>
<path d="M45.3 58.75C45.7219 58.7656 46.0812 58.9219 46.3781 59.2188C46.675 59.5 46.8312 59.8516 46.8469 60.2734V64.1875H54.4641V60.2734C54.4797 59.8359 54.6437 59.4766 54.9562 59.1953C55.2687 58.8984 55.6437 58.75 56.0812 58.75C56.5031 58.7656 56.8625 58.9219 57.1594 59.2188C57.4562 59.5 57.6125 59.8516 57.6281 60.2734V71.7578C57.5344 72.6953 57.0187 73.2031 56.0812 73.2812C55.6437 73.2812 55.2609 73.1406 54.9328 72.8594C54.6203 72.5625 54.4641 72.1953 54.4641 71.7578V67.3281H46.8469V71.7578C46.7531 72.6953 46.2375 73.2031 45.3 73.2812C44.8625 73.2812 44.4797 73.1406 44.1516 72.8594C43.8391 72.5625 43.6828 72.1953 43.6828 71.7578V60.2734C43.6984 59.8359 43.8625 59.4766 44.175 59.1953C44.4875 58.8984 44.8625 58.75 45.3 58.75ZM59.7047 58.75C60.1422 58.75 60.5172 58.8984 60.8297 59.1953C61.1422 59.4766 61.3062 59.8359 61.3219 60.2734V60.7188C61.3062 61.3594 61.3453 61.9531 61.4391 62.5C61.5484 63.0312 61.7984 63.5078 62.1891 63.9297C62.5797 64.3516 63.0719 64.5781 63.6656 64.6094H70.2516V60.3203C70.2516 59.8828 70.4078 59.5234 70.7203 59.2422C71.0484 58.9453 71.4312 58.7969 71.8687 58.7969C72.8062 58.875 73.3219 59.3828 73.4156 60.3203V65.7578C73.4156 67.0078 73.2437 68.1875 72.9 69.2969C72.5875 70.2812 72.0719 71.1172 71.3531 71.8047C70.65 72.4766 69.7516 72.8438 68.6578 72.9062H60.2203C59.7984 72.8906 59.4391 72.7422 59.1422 72.4609C58.8609 72.1641 58.7125 71.8047 58.6969 71.3828C58.6969 70.9453 58.8375 70.5703 59.1187 70.2578C59.4156 69.9453 59.7828 69.7812 60.2203 69.7656H67.8609C68.4547 69.7344 68.9469 69.5078 69.3375 69.0859C69.6969 68.6953 69.9391 68.25 70.0641 67.75H62.8687C61.775 67.6875 60.8687 67.3203 60.15 66.6484C59.4469 65.9609 58.9391 65.125 58.6266 64.1406C58.3297 63.1562 58.1734 62.1094 58.1578 61V60.2734C58.1734 59.8516 58.3297 59.5 58.6266 59.2188C58.9234 58.9219 59.2828 58.7656 59.7047 58.75ZM77.25 71.7109C77.1562 72.6484 76.6406 73.1562 75.7031 73.2344C75.2656 73.2344 74.8828 73.0938 74.5547 72.8125C74.2422 72.5156 74.0859 72.1484 74.0859 71.7109V60.6484C74.1016 60.2109 74.2656 59.8516 74.5781 59.5703C74.8906 59.2734 75.2656 59.125 75.7031 59.125H85.5469C86.9219 59.1719 87.9609 59.4766 88.6641 60.0391C89.3672 60.5859 89.875 61.2109 90.1875 61.9141C90.5 62.6172 90.6562 63.3281 90.6562 64.0469C90.6562 64.7969 90.5 65.5234 90.1875 66.2266C89.8906 66.9297 89.3828 67.5625 88.6641 68.125C87.9609 68.6719 87.0625 68.9375 85.9688 68.9219H80.0625C79.625 68.9219 79.2578 68.7656 78.9609 68.4531C78.6484 68.1562 78.4922 67.7891 78.4922 67.3516C78.4922 66.9141 78.6406 66.5469 78.9375 66.25C79.25 65.9375 79.625 65.7812 80.0625 65.7812H86.1094C86.4062 65.7812 86.6484 65.6875 86.8359 65.5C87.0391 65.2969 87.1875 65.0703 87.2812 64.8203C87.375 64.5547 87.4219 64.2891 87.4219 64.0234C87.4219 63.7734 87.375 63.5234 87.2812 63.2734C87.1875 63.0078 87.0391 62.7812 86.8359 62.5938C86.6484 62.3906 86.4062 62.2812 86.1094 62.2656H77.8594C77.4531 62.2812 77.25 62.4844 77.25 62.875V71.7109ZM96.0141 69.3203C96.0141 68.8828 96.1625 68.5156 96.4594 68.2188C96.7719 67.9062 97.1469 67.75 97.5844 67.75H101.17L100.561 66.0156C100.311 65.375 100.061 64.7734 99.8109 64.2109C99.5766 63.6328 99.3031 63.1094 98.9906 62.6406C98.7094 62.1719 98.3891 61.9219 98.0297 61.8906C97.6547 61.9219 97.3187 62.1719 97.0219 62.6406C96.725 63.1094 96.4516 63.6328 96.2016 64.2109C95.9672 64.7734 95.725 65.375 95.475 66.0156L93.2484 72.1094C93.0922 72.4375 92.8891 72.7109 92.6391 72.9297C92.4047 73.1328 92.0453 73.2344 91.5609 73.2344C91.1078 73.2344 90.7328 73.0781 90.4359 72.7656C90.1547 72.4531 90.0297 72.0781 90.0609 71.6406C90.0766 71.4375 90.1234 71.25 90.2016 71.0781L92.7797 64.4219C93.4984 62.6719 94.2172 61.2578 94.9359 60.1797C95.6391 59.1172 96.6703 58.5781 98.0297 58.5625C99.3734 58.5781 100.397 59.1172 101.1 60.1797C101.819 61.2266 102.537 62.6406 103.256 64.4219L105.834 71.0781C105.912 71.25 105.959 71.4375 105.975 71.6406C106.006 72.0781 105.873 72.4531 105.577 72.7656C105.295 73.0781 104.928 73.2344 104.475 73.2344C103.959 73.2344 103.577 73.1328 103.327 72.9297C103.092 72.7109 102.897 72.4375 102.741 72.1094L102.295 70.8906H97.5844C97.1469 70.8906 96.7797 70.7344 96.4828 70.4219C96.1703 70.125 96.0141 69.7578 96.0141 69.3203ZM107.489 58.75C107.927 58.75 108.302 58.8984 108.614 59.1953C108.927 59.4766 109.091 59.8359 109.106 60.2734V60.7188C109.091 61.3594 109.13 61.9531 109.223 62.5C109.333 63.0312 109.583 63.5078 109.973 63.9297C110.364 64.3516 110.856 64.5781 111.45 64.6094H118.036V60.3203C118.036 59.8828 118.192 59.5234 118.505 59.2422C118.833 58.9453 119.216 58.7969 119.653 58.7969C120.591 58.875 121.106 59.3828 121.2 60.3203V65.7578C121.2 67.0078 121.028 68.1875 120.684 69.2969C120.372 70.2812 119.856 71.1172 119.138 71.8047C118.434 72.4766 117.536 72.8438 116.442 72.9062H108.005C107.583 72.8906 107.223 72.7422 106.927 72.4609C106.645 72.1641 106.497 71.8047 106.481 71.3828C106.481 70.9453 106.622 70.5703 106.903 70.2578C107.2 69.9453 107.567 69.7812 108.005 69.7656H115.645C116.239 69.7344 116.731 69.5078 117.122 69.0859C117.481 68.6953 117.723 68.25 117.848 67.75H110.653C109.559 67.6875 108.653 67.3203 107.934 66.6484C107.231 65.9609 106.723 65.125 106.411 64.1406C106.114 63.1562 105.958 62.1094 105.942 61V60.2734C105.958 59.8516 106.114 59.5 106.411 59.2188C106.708 58.9219 107.067 58.7656 107.489 58.75Z" fill="#09203F"/>
<path d="M17 63C17 61.4087 17.6321 59.8826 18.7574 58.7574C19.8826 57.6321 21.4087 57 23 57H29C30.5913 57 32.1174 57.6321 33.2426 58.7574C34.3679 59.8826 35 61.4087 35 63V69C35 70.5913 34.3679 72.1174 33.2426 73.2426C32.1174 74.3679 30.5913 75 29 75H23C21.4087 75 19.8826 74.3679 18.7574 73.2426C17.6321 72.1174 17 70.5913 17 69V63Z" fill="#09203F"/>
</svg>
