<svg xmlns="http://www.w3.org/2000/svg" xmlns:xlink="http://www.w3.org/1999/xlink" width="1230" zoomAndPan="magnify" viewBox="0 0 922.5 599.999999" height="800" preserveAspectRatio="xMidYMid meet" version="1.0"><defs><clipPath id="fbb5c6533c"><path d="M 0 0.164062 L 922 0.164062 L 922 599.835938 L 0 599.835938 Z M 0 0.164062 " clip-rule="nonzero"/></clipPath><clipPath id="1a0bcbec42"><path d="M 22.488281 0.164062 L 899.511719 0.164062 C 905.476562 0.164062 911.195312 2.53125 915.414062 6.75 C 919.632812 10.964844 922 16.6875 922 22.648438 L 922 577.351562 C 922 583.3125 919.632812 589.035156 915.414062 593.25 C 911.195312 597.46875 905.476562 599.835938 899.511719 599.835938 L 22.488281 599.835938 C 16.523438 599.835938 10.804688 597.46875 6.585938 593.25 C 2.371094 589.035156 0 583.3125 0 577.351562 L 0 22.648438 C 0 16.6875 2.371094 10.964844 6.585938 6.75 C 10.804688 2.53125 16.523438 0.164062 22.488281 0.164062 Z M 22.488281 0.164062 " clip-rule="nonzero"/></clipPath><clipPath id="a66aa54f4c"><path d="M 38.808594 21.867188 L 56.289062 21.867188 L 56.289062 39.34375 L 38.808594 39.34375 Z M 38.808594 21.867188 " clip-rule="nonzero"/></clipPath><clipPath id="24a9756e39"><path d="M 47.546875 21.867188 C 42.722656 21.867188 38.808594 25.777344 38.808594 30.605469 C 38.808594 35.433594 42.722656 39.34375 47.546875 39.34375 C 52.375 39.34375 56.289062 35.433594 56.289062 30.605469 C 56.289062 25.777344 52.375 21.867188 47.546875 21.867188 Z M 47.546875 21.867188 " clip-rule="nonzero"/></clipPath><clipPath id="a9d665d4b1"><path d="M 38.808594 21.867188 L 56.050781 21.867188 L 56.050781 39.105469 L 38.808594 39.105469 Z M 38.808594 21.867188 " clip-rule="nonzero"/></clipPath><clipPath id="162838b690"><path d="M 47.546875 21.867188 C 42.722656 21.867188 38.808594 25.777344 38.808594 30.601562 C 38.808594 35.429688 42.722656 39.339844 47.546875 39.339844 C 52.371094 39.339844 56.285156 35.429688 56.285156 30.601562 C 56.285156 25.777344 52.371094 21.867188 47.546875 21.867188 Z M 47.546875 21.867188 " clip-rule="nonzero"/></clipPath><clipPath id="d43619d0e6"><path d="M 65.320312 21.867188 L 82.800781 21.867188 L 82.800781 39.34375 L 65.320312 39.34375 Z M 65.320312 21.867188 " clip-rule="nonzero"/></clipPath><clipPath id="5f996b2aa8"><path d="M 74.0625 21.867188 C 69.234375 21.867188 65.320312 25.777344 65.320312 30.605469 C 65.320312 35.433594 69.234375 39.34375 74.0625 39.34375 C 78.886719 39.34375 82.800781 35.433594 82.800781 30.605469 C 82.800781 25.777344 78.886719 21.867188 74.0625 21.867188 Z M 74.0625 21.867188 " clip-rule="nonzero"/></clipPath><clipPath id="1e62ee1af7"><path d="M 65.320312 21.867188 L 82.5625 21.867188 L 82.5625 39.105469 L 65.320312 39.105469 Z M 65.320312 21.867188 " clip-rule="nonzero"/></clipPath><clipPath id="3a24b63092"><path d="M 74.058594 21.867188 C 69.234375 21.867188 65.320312 25.777344 65.320312 30.601562 C 65.320312 35.429688 69.234375 39.339844 74.058594 39.339844 C 78.882812 39.339844 82.796875 35.429688 82.796875 30.601562 C 82.796875 25.777344 78.882812 21.867188 74.058594 21.867188 Z M 74.058594 21.867188 " clip-rule="nonzero"/></clipPath><clipPath id="89c20e180f"><path d="M 91.832031 21.867188 L 109.3125 21.867188 L 109.3125 39.34375 L 91.832031 39.34375 Z M 91.832031 21.867188 " clip-rule="nonzero"/></clipPath><clipPath id="c2e8a300cb"><path d="M 100.574219 21.867188 C 95.746094 21.867188 91.832031 25.777344 91.832031 30.605469 C 91.832031 35.433594 95.746094 39.34375 100.574219 39.34375 C 105.398438 39.34375 109.3125 35.433594 109.3125 30.605469 C 109.3125 25.777344 105.398438 21.867188 100.574219 21.867188 Z M 100.574219 21.867188 " clip-rule="nonzero"/></clipPath><clipPath id="ae58fba86f"><path d="M 91.832031 21.867188 L 109.074219 21.867188 L 109.074219 39.105469 L 91.832031 39.105469 Z M 91.832031 21.867188 " clip-rule="nonzero"/></clipPath><clipPath id="0b40857001"><path d="M 100.570312 21.867188 C 95.746094 21.867188 91.832031 25.777344 91.832031 30.601562 C 91.832031 35.429688 95.746094 39.339844 100.570312 39.339844 C 105.398438 39.339844 109.308594 35.429688 109.308594 30.601562 C 109.308594 25.777344 105.398438 21.867188 100.570312 21.867188 Z M 100.570312 21.867188 " clip-rule="nonzero"/></clipPath><clipPath id="1bdcb2b1fe"><path d="M 0 46 L 922 46 L 922 73 L 0 73 Z M 0 46 " clip-rule="nonzero"/></clipPath></defs><g clip-path="url(#fbb5c6533c)"><g clip-path="url(#1a0bcbec42)"><path fill="#faf7f2" d="M 0 0.164062 L 922 0.164062 L 922 599.835938 L 0 599.835938 Z M 0 0.164062 " fill-opacity="1" fill-rule="nonzero"/><path stroke-linecap="butt" transform="matrix(0.749594, 0, 0, 0.749594, 0, 0.162548)" fill="none" stroke-linejoin="miter" d="M 30.000628 0.00202005 L 1199.999062 0.00202005 C 1207.956498 0.00202005 1215.585631 3.159981 1221.21368 8.78803 C 1226.841729 14.410868 1229.99969 22.045212 1229.99969 29.997437 L 1229.99969 770.002504 C 1229.99969 777.954729 1226.841729 785.589073 1221.21368 791.211911 C 1215.585631 796.83996 1207.956498 799.997921 1199.999062 799.997921 L 30.000628 799.997921 C 22.043192 799.997921 14.414059 796.83996 8.78601 791.211911 C 3.163172 785.589073 0 777.954729 0 770.002504 L 0 29.997437 C 0 22.045212 3.163172 14.410868 8.78601 8.78803 C 14.414059 3.159981 22.043192 0.00202005 30.000628 0.00202005 Z M 30.000628 0.00202005 " stroke="#211f1c" stroke-width="6" stroke-opacity="1" stroke-miterlimit="4"/></g></g><g clip-path="url(#a66aa54f4c)"><g clip-path="url(#24a9756e39)"><path fill="#e6bcb5" d="M 38.808594 21.867188 L 56.289062 21.867188 L 56.289062 39.34375 L 38.808594 39.34375 Z M 38.808594 21.867188 " fill-opacity="1" fill-rule="nonzero"/></g></g><g clip-path="url(#a9d665d4b1)"><g clip-path="url(#162838b690)"><path stroke-linecap="butt" transform="matrix(0.749594, 0, 0, 0.749594, 38.809214, 21.865481)" fill="none" stroke-linejoin="miter" d="M 11.656529 0.0022765 C 5.220751 0.0022765 -0.000827099 5.218644 -0.000827099 11.654422 C -0.000827099 18.095411 5.220751 23.311778 11.656529 23.311778 C 18.092307 23.311778 23.313886 18.095411 23.313886 11.654422 C 23.313886 5.218644 18.092307 0.0022765 11.656529 0.0022765 Z M 11.656529 0.0022765 " stroke="#211f1c" stroke-width="6" stroke-opacity="1" stroke-miterlimit="4"/></g></g><g clip-path="url(#d43619d0e6)"><g clip-path="url(#5f996b2aa8)"><path fill="#e4e3ac" d="M 65.320312 21.867188 L 82.800781 21.867188 L 82.800781 39.34375 L 65.320312 39.34375 Z M 65.320312 21.867188 " fill-opacity="1" fill-rule="nonzero"/></g></g><g clip-path="url(#1e62ee1af7)"><g clip-path="url(#3a24b63092)"><path stroke-linecap="butt" transform="matrix(0.749594, 0, 0, 0.749594, 65.321381, 21.865481)" fill="none" stroke-linejoin="miter" d="M 11.655931 0.0022765 C 5.220153 0.0022765 -0.00142508 5.218644 -0.00142508 11.654422 C -0.00142508 18.095411 5.220153 23.311778 11.655931 23.311778 C 18.091709 23.311778 23.313288 18.095411 23.313288 11.654422 C 23.313288 5.218644 18.091709 0.0022765 11.655931 0.0022765 Z M 11.655931 0.0022765 " stroke="#211f1c" stroke-width="6" stroke-opacity="1" stroke-miterlimit="4"/></g></g><g clip-path="url(#89c20e180f)"><g clip-path="url(#c2e8a300cb)"><path fill="#b8c8cb" d="M 91.832031 21.867188 L 109.3125 21.867188 L 109.3125 39.34375 L 91.832031 39.34375 Z M 91.832031 21.867188 " fill-opacity="1" fill-rule="nonzero"/></g></g><g clip-path="url(#ae58fba86f)"><g clip-path="url(#0b40857001)"><path stroke-linecap="butt" transform="matrix(0.749594, 0, 0, 0.749594, 91.83355, 21.865481)" fill="none" stroke-linejoin="miter" d="M 11.65533 0.0022765 C 5.219553 0.0022765 -0.00202595 5.218644 -0.00202595 11.654422 C -0.00202595 18.095411 5.219553 23.311778 11.65533 23.311778 C 18.096319 23.311778 23.312687 18.095411 23.312687 11.654422 C 23.312687 5.218644 18.096319 0.0022765 11.65533 0.0022765 Z M 11.65533 0.0022765 " stroke="#211f1c" stroke-width="6" stroke-opacity="1" stroke-miterlimit="4"/></g></g><g clip-path="url(#1bdcb2b1fe)"><path stroke-linecap="butt" transform="matrix(0.749593, 0.000981643, -0.000981643, 0.749593, 0.0014725, 57.798221)" fill="none" stroke-linejoin="miter" d="M -0.00000133725 1.499019 L 1230.000711 1.498498 " stroke="#211f1c" stroke-width="3" stroke-opacity="1" stroke-miterlimit="4"/></g></svg>