<svg xmlns="http://www.w3.org/2000/svg" xmlns:xlink="http://www.w3.org/1999/xlink" width="991" zoomAndPan="magnify" viewBox="0 0 743.25 567.000005" height="756" preserveAspectRatio="xMidYMid meet" version="1.0"><defs><clipPath id="1c500b11f7"><path d="M 0.28125 0 L 742.222656 0 L 742.222656 566 L 0.28125 566 Z M 0.28125 0 " clip-rule="nonzero"/></clipPath><clipPath id="2093f0d4d8"><path d="M 732.59375 11.1875 L 740.070312 11.1875 L 740.070312 556.074219 L 732.59375 556.074219 Z M 11.652344 556.074219 L 740.070312 556.074219 L 740.070312 563.550781 L 11.652344 563.550781 Z M 11.652344 556.074219 " clip-rule="nonzero"/></clipPath><clipPath id="8e6082724d"><path d="M 732.59375 9.449219 L 741.808594 9.449219 L 741.808594 11.1875 L 732.59375 11.1875 Z M 740.070312 11.1875 L 741.808594 11.1875 L 741.808594 563.550781 L 740.070312 563.550781 Z M 9.914062 556.074219 L 11.652344 556.074219 L 11.652344 563.550781 L 9.914062 563.550781 Z M 9.914062 563.550781 L 741.808594 563.550781 L 741.808594 565.289062 L 9.914062 565.289062 Z M 9.914062 563.550781 " clip-rule="nonzero"/></clipPath><clipPath id="13ceaa9423"><path d="M 2.4375 1.972656 L 730.855469 1.972656 L 730.855469 554.335938 L 2.4375 554.335938 Z M 2.4375 1.972656 " clip-rule="nonzero"/></clipPath><clipPath id="de3029162f"><path d="M 0.699219 0.234375 L 732.59375 0.234375 L 732.59375 1.972656 L 0.699219 1.972656 Z M 730.855469 1.972656 L 732.59375 1.972656 L 732.59375 554.335938 L 730.855469 554.335938 Z M 0.699219 1.972656 L 2.4375 1.972656 L 2.4375 554.335938 L 0.699219 554.335938 Z M 0.699219 554.335938 L 732.59375 554.335938 L 732.59375 556.074219 L 0.699219 556.074219 Z M 0.699219 554.335938 " clip-rule="nonzero"/></clipPath><clipPath id="8a7430134c"><path d="M 1.476562 1.074219 L 741.03125 1.074219 L 741.03125 45.992188 L 1.476562 45.992188 Z M 1.476562 1.074219 " clip-rule="nonzero"/></clipPath><clipPath id="6337f2cd6c"><path d="M 0.699219 0.296875 L 741.808594 0.296875 L 741.808594 1.851562 L 0.699219 1.851562 Z M 740.253906 1.851562 L 741.808594 1.851562 L 741.808594 45.214844 L 740.253906 45.214844 Z M 0.699219 1.851562 L 2.253906 1.851562 L 2.253906 45.214844 L 0.699219 45.214844 Z M 0.699219 45.214844 L 741.808594 45.214844 L 741.808594 46.769531 L 0.699219 46.769531 Z M 0.699219 45.214844 " clip-rule="nonzero"/></clipPath><clipPath id="ec4904f733"><path d="M 17.5 13.878906 L 36.214844 13.878906 L 36.214844 32.59375 L 17.5 32.59375 Z M 17.5 13.878906 " clip-rule="nonzero"/></clipPath><clipPath id="b3d339fea9"><path d="M 26.859375 13.878906 C 21.675781 13.878906 17.5 18.054688 17.5 23.234375 C 17.5 28.417969 21.675781 32.59375 26.859375 32.59375 C 31.992188 32.59375 36.214844 28.417969 36.214844 23.234375 C 36.214844 18.054688 31.992188 13.878906 26.859375 13.878906 Z M 26.859375 31.15625 C 22.492188 31.15625 18.9375 27.601562 18.9375 23.234375 C 18.9375 18.867188 22.492188 15.316406 26.859375 15.316406 C 31.226562 15.316406 34.777344 18.867188 34.777344 23.234375 C 34.777344 27.601562 31.226562 31.15625 26.859375 31.15625 Z M 26.859375 31.15625 " clip-rule="nonzero"/></clipPath><clipPath id="9bea370ad0"><path d="M 18.890625 15.265625 L 34.828125 15.265625 L 34.828125 31.207031 L 18.890625 31.207031 Z M 18.890625 15.265625 " clip-rule="nonzero"/></clipPath><clipPath id="a9c8137117"><path d="M 26.859375 15.316406 C 22.492188 15.316406 18.9375 18.867188 18.9375 23.234375 C 18.9375 27.601562 22.492188 31.15625 26.859375 31.15625 C 31.226562 31.15625 34.777344 27.601562 34.777344 23.234375 C 34.777344 18.867188 31.226562 15.316406 26.859375 15.316406 Z M 26.859375 15.316406 " clip-rule="nonzero"/></clipPath><clipPath id="9bf18b05f7"><path d="M 78.765625 14.046875 L 97.566406 14.046875 L 97.566406 32.847656 L 78.765625 32.847656 Z M 78.765625 14.046875 " clip-rule="nonzero"/></clipPath><clipPath id="7ee8daab96"><path d="M 88.164062 14.046875 C 82.960938 14.046875 78.765625 18.242188 78.765625 23.449219 C 78.765625 28.65625 82.960938 32.847656 88.164062 32.847656 C 93.324219 32.847656 97.566406 28.65625 97.566406 23.449219 C 97.566406 18.242188 93.324219 14.046875 88.164062 14.046875 Z M 88.164062 31.402344 C 83.777344 31.402344 80.210938 27.835938 80.210938 23.449219 C 80.210938 19.0625 83.777344 15.496094 88.164062 15.496094 C 92.554688 15.496094 96.121094 19.0625 96.121094 23.449219 C 96.121094 27.835938 92.554688 31.402344 88.164062 31.402344 Z M 88.164062 31.402344 " clip-rule="nonzero"/></clipPath><clipPath id="bdd5ce592d"><path d="M 80.160156 15.445312 L 96.171875 15.445312 L 96.171875 31.453125 L 80.160156 31.453125 Z M 80.160156 15.445312 " clip-rule="nonzero"/></clipPath><clipPath id="a0c5184f3b"><path d="M 88.164062 15.496094 C 83.777344 15.496094 80.210938 19.0625 80.210938 23.449219 C 80.210938 27.835938 83.777344 31.402344 88.164062 31.402344 C 92.554688 31.402344 96.121094 27.835938 96.121094 23.449219 C 96.121094 19.0625 92.554688 15.496094 88.164062 15.496094 Z M 88.164062 15.496094 " clip-rule="nonzero"/></clipPath><clipPath id="8808630ab7"><path d="M 48.089844 13.792969 L 66.890625 13.792969 L 66.890625 32.59375 L 48.089844 32.59375 Z M 48.089844 13.792969 " clip-rule="nonzero"/></clipPath><clipPath id="7bc0079b93"><path d="M 57.492188 13.792969 C 52.285156 13.792969 48.089844 17.988281 48.089844 23.195312 C 48.089844 28.398438 52.285156 32.59375 57.492188 32.59375 C 62.648438 32.59375 66.890625 28.398438 66.890625 23.195312 C 66.890625 17.988281 62.648438 13.792969 57.492188 13.792969 Z M 57.492188 31.148438 C 53.105469 31.148438 49.535156 27.582031 49.535156 23.195312 C 49.535156 18.808594 53.105469 15.238281 57.492188 15.238281 C 61.878906 15.238281 65.445312 18.808594 65.445312 23.195312 C 65.445312 27.582031 61.878906 31.148438 57.492188 31.148438 Z M 57.492188 31.148438 " clip-rule="nonzero"/></clipPath><clipPath id="6e6ddf72e5"><path d="M 49.484375 15.1875 L 65.496094 15.1875 L 65.496094 31.199219 L 49.484375 31.199219 Z M 49.484375 15.1875 " clip-rule="nonzero"/></clipPath><clipPath id="4f497be17f"><path d="M 57.492188 15.238281 C 53.105469 15.238281 49.535156 18.808594 49.535156 23.195312 C 49.535156 27.582031 53.105469 31.148438 57.492188 31.148438 C 61.878906 31.148438 65.445312 27.582031 65.445312 23.195312 C 65.445312 18.808594 61.878906 15.238281 57.492188 15.238281 Z M 57.492188 15.238281 " clip-rule="nonzero"/></clipPath><clipPath id="74418bcc77"><path d="M 78.765625 14.046875 L 97.566406 14.046875 L 97.566406 32.847656 L 78.765625 32.847656 Z M 78.765625 14.046875 " clip-rule="nonzero"/></clipPath><clipPath id="000ac46646"><path d="M 88.164062 14.046875 C 82.960938 14.046875 78.765625 18.242188 78.765625 23.449219 C 78.765625 28.65625 82.960938 32.847656 88.164062 32.847656 C 93.324219 32.847656 97.566406 28.65625 97.566406 23.449219 C 97.566406 18.242188 93.324219 14.046875 88.164062 14.046875 Z M 88.164062 31.402344 C 83.777344 31.402344 80.210938 27.835938 80.210938 23.449219 C 80.210938 19.0625 83.777344 15.496094 88.164062 15.496094 C 92.554688 15.496094 96.121094 19.0625 96.121094 23.449219 C 96.121094 27.835938 92.554688 31.402344 88.164062 31.402344 Z M 88.164062 31.402344 " clip-rule="nonzero"/></clipPath><clipPath id="4808bdf02e"><path d="M 80.160156 15.445312 L 96.171875 15.445312 L 96.171875 31.453125 L 80.160156 31.453125 Z M 80.160156 15.445312 " clip-rule="nonzero"/></clipPath><clipPath id="535a8bd09c"><path d="M 88.164062 15.496094 C 83.777344 15.496094 80.210938 19.0625 80.210938 23.449219 C 80.210938 27.835938 83.777344 31.402344 88.164062 31.402344 C 92.554688 31.402344 96.121094 27.835938 96.121094 23.449219 C 96.121094 19.0625 92.554688 15.496094 88.164062 15.496094 Z M 88.164062 15.496094 " clip-rule="nonzero"/></clipPath><clipPath id="4017d8e655"><path d="M 48.089844 13.792969 L 66.890625 13.792969 L 66.890625 32.59375 L 48.089844 32.59375 Z M 48.089844 13.792969 " clip-rule="nonzero"/></clipPath><clipPath id="d713e40838"><path d="M 57.492188 13.792969 C 52.285156 13.792969 48.089844 17.988281 48.089844 23.195312 C 48.089844 28.398438 52.285156 32.59375 57.492188 32.59375 C 62.648438 32.59375 66.890625 28.398438 66.890625 23.195312 C 66.890625 17.988281 62.648438 13.792969 57.492188 13.792969 Z M 57.492188 31.148438 C 53.105469 31.148438 49.535156 27.582031 49.535156 23.195312 C 49.535156 18.808594 53.105469 15.238281 57.492188 15.238281 C 61.878906 15.238281 65.445312 18.808594 65.445312 23.195312 C 65.445312 27.582031 61.878906 31.148438 57.492188 31.148438 Z M 57.492188 31.148438 " clip-rule="nonzero"/></clipPath><clipPath id="290192ac1a"><path d="M 49.484375 15.1875 L 65.496094 15.1875 L 65.496094 31.199219 L 49.484375 31.199219 Z M 49.484375 15.1875 " clip-rule="nonzero"/></clipPath><clipPath id="19d7dd2081"><path d="M 57.492188 15.238281 C 53.105469 15.238281 49.535156 18.808594 49.535156 23.195312 C 49.535156 27.582031 53.105469 31.148438 57.492188 31.148438 C 61.878906 31.148438 65.445312 27.582031 65.445312 23.195312 C 65.445312 18.808594 61.878906 15.238281 57.492188 15.238281 Z M 57.492188 15.238281 " clip-rule="nonzero"/></clipPath></defs><g clip-path="url(#1c500b11f7)"><path fill="#ffffff" d="M 0.28125 0 L 742.222656 0 L 742.222656 566 L 0.28125 566 Z M 0.28125 0 " fill-opacity="1" fill-rule="nonzero"/></g><g clip-path="url(#2093f0d4d8)"><path fill="#b6e3f9" d="M 0.699219 0.234375 L 741.808594 0.234375 L 741.808594 565.289062 L 0.699219 565.289062 Z M 0.699219 0.234375 " fill-opacity="1" fill-rule="nonzero"/></g><g clip-path="url(#8e6082724d)"><path fill="#000000" d="M 0.699219 0.234375 L 741.808594 0.234375 L 741.808594 565.289062 L 0.699219 565.289062 Z M 0.699219 0.234375 " fill-opacity="1" fill-rule="nonzero"/></g><g clip-path="url(#13ceaa9423)"><path fill="#ffffff" d="M 0.699219 0.234375 L 741.808594 0.234375 L 741.808594 565.289062 L 0.699219 565.289062 Z M 0.699219 0.234375 " fill-opacity="1" fill-rule="nonzero"/></g><g clip-path="url(#de3029162f)"><path fill="#000000" d="M 0.699219 0.234375 L 741.808594 0.234375 L 741.808594 565.289062 L 0.699219 565.289062 Z M 0.699219 0.234375 " fill-opacity="1" fill-rule="nonzero"/></g><g clip-path="url(#8a7430134c)"><path fill="#b6e3f9" d="M 0.699219 0.296875 L 741.808594 0.296875 L 741.808594 46.769531 L 0.699219 46.769531 Z M 0.699219 0.296875 " fill-opacity="1" fill-rule="nonzero"/></g><g clip-path="url(#6337f2cd6c)"><path fill="#000000" d="M 0.699219 0.296875 L 741.808594 0.296875 L 741.808594 46.769531 L 0.699219 46.769531 Z M 0.699219 0.296875 " fill-opacity="1" fill-rule="nonzero"/></g><g clip-path="url(#ec4904f733)"><g clip-path="url(#b3d339fea9)"><path fill="#000000" d="M 17.5 13.878906 L 36.214844 13.878906 L 36.214844 32.59375 L 17.5 32.59375 Z M 17.5 13.878906 " fill-opacity="1" fill-rule="nonzero"/></g></g><g clip-path="url(#9bea370ad0)"><g clip-path="url(#a9c8137117)"><path fill="#f7b2b0" d="M 17.5 13.878906 L 36.214844 13.878906 L 36.214844 32.59375 L 17.5 32.59375 Z M 17.5 13.878906 " fill-opacity="1" fill-rule="nonzero"/></g></g><g clip-path="url(#9bf18b05f7)"><g clip-path="url(#7ee8daab96)"><path fill="#000000" d="M 78.765625 14.046875 L 97.566406 14.046875 L 97.566406 32.847656 L 78.765625 32.847656 Z M 78.765625 14.046875 " fill-opacity="1" fill-rule="nonzero"/></g></g><g clip-path="url(#bdd5ce592d)"><g clip-path="url(#a0c5184f3b)"><path fill="#d1f3c8" d="M 78.765625 14.046875 L 97.566406 14.046875 L 97.566406 32.847656 L 78.765625 32.847656 Z M 78.765625 14.046875 " fill-opacity="1" fill-rule="nonzero"/></g></g><g clip-path="url(#8808630ab7)"><g clip-path="url(#7bc0079b93)"><path fill="#000000" d="M 48.089844 13.792969 L 66.890625 13.792969 L 66.890625 32.59375 L 48.089844 32.59375 Z M 48.089844 13.792969 " fill-opacity="1" fill-rule="nonzero"/></g></g><g clip-path="url(#6e6ddf72e5)"><g clip-path="url(#4f497be17f)"><path fill="#f9c374" d="M 48.089844 13.792969 L 66.890625 13.792969 L 66.890625 32.59375 L 48.089844 32.59375 Z M 48.089844 13.792969 " fill-opacity="1" fill-rule="nonzero"/></g></g><g clip-path="url(#74418bcc77)"><g clip-path="url(#000ac46646)"><path fill="#000000" d="M 78.765625 14.046875 L 97.566406 14.046875 L 97.566406 32.847656 L 78.765625 32.847656 Z M 78.765625 14.046875 " fill-opacity="1" fill-rule="nonzero"/></g></g><g clip-path="url(#4808bdf02e)"><g clip-path="url(#535a8bd09c)"><path fill="#d1f3c8" d="M 78.765625 14.046875 L 97.566406 14.046875 L 97.566406 32.847656 L 78.765625 32.847656 Z M 78.765625 14.046875 " fill-opacity="1" fill-rule="nonzero"/></g></g><g clip-path="url(#4017d8e655)"><g clip-path="url(#d713e40838)"><path fill="#000000" d="M 48.089844 13.792969 L 66.890625 13.792969 L 66.890625 32.59375 L 48.089844 32.59375 Z M 48.089844 13.792969 " fill-opacity="1" fill-rule="nonzero"/></g></g><g clip-path="url(#290192ac1a)"><g clip-path="url(#19d7dd2081)"><path fill="#f9c374" d="M 48.089844 13.792969 L 66.890625 13.792969 L 66.890625 32.59375 L 48.089844 32.59375 Z M 48.089844 13.792969 " fill-opacity="1" fill-rule="nonzero"/></g></g></svg>