<svg width="118" height="118" viewBox="0 0 118 118" fill="none" xmlns="http://www.w3.org/2000/svg">
<path d="M22.125 106.938C19.191 106.937 16.3773 105.772 14.3026 103.697C12.228 101.623 11.0625 98.809 11.0625 95.875V22.125C11.0625 19.191 12.228 16.3773 14.3026 14.3026C16.3773 12.228 19.191 11.0625 22.125 11.0625H81.125C82.103 11.0625 83.0409 11.451 83.7325 12.1425C84.424 12.8341 84.8125 13.772 84.8125 14.75C84.8125 15.728 84.424 16.6659 83.7325 17.3575C83.0409 18.049 82.103 18.4375 81.125 18.4375H22.125C21.147 18.4375 20.2091 18.826 19.5175 19.5175C18.826 20.2091 18.4375 21.147 18.4375 22.125V95.875C18.4375 96.853 18.826 97.7909 19.5175 98.4825C20.2091 99.174 21.147 99.5625 22.125 99.5625H95.875C96.853 99.5625 97.7909 99.174 98.4825 98.4825C99.174 97.7909 99.5625 96.853 99.5625 95.875V59C99.5625 58.022 99.951 57.0841 100.643 56.3925C101.334 55.701 102.272 55.3125 103.25 55.3125C104.228 55.3125 105.166 55.701 105.857 56.3925C106.549 57.0841 106.938 58.022 106.938 59V95.875C106.937 98.809 105.772 101.623 103.697 103.697C101.623 105.772 98.809 106.937 95.875 106.938H22.125Z" fill="#09203F"/>
<path d="M61.6108 76.3615L113.236 24.7365C113.579 24.3937 113.851 23.9866 114.036 23.5387C114.222 23.0907 114.317 22.6106 114.317 22.1258C114.317 21.6409 114.222 21.1608 114.036 20.7128C113.851 20.2649 113.579 19.8578 113.236 19.515C112.893 19.1722 112.486 18.9002 112.038 18.7146C111.59 18.5291 111.11 18.4336 110.625 18.4336C110.14 18.4336 109.66 18.5291 109.212 18.7146C108.764 18.9002 108.357 19.1722 108.014 19.515L59 68.5366L39.4858 49.015C39.1429 48.6722 38.7359 48.4002 38.288 48.2146C37.84 48.0291 37.3599 47.9336 36.875 47.9336C36.3902 47.9336 35.91 48.0291 35.4621 48.2146C35.0141 48.4002 34.6071 48.6722 34.2643 49.015C33.9214 49.3578 33.6495 49.7649 33.4639 50.2128C33.2784 50.6608 33.1829 51.1409 33.1829 51.6257C33.1829 52.1106 33.2784 52.5907 33.4639 53.0387C33.6495 53.4866 33.9214 53.8937 34.2643 54.2365L56.3893 76.3615C56.7318 76.7049 57.1387 76.9774 57.5867 77.1633C58.0347 77.3492 58.515 77.4448 59 77.4448C59.4851 77.4448 59.9653 77.3492 60.4133 77.1633C60.8613 76.9774 61.2682 76.7049 61.6108 76.3615Z" fill="#09203F"/>
</svg>
