<svg width="113" height="113" viewBox="0 0 113 113" fill="none" xmlns="http://www.w3.org/2000/svg">
<path d="M109.483 13.7021C110.143 14.364 110.513 15.2605 110.513 16.1951C110.513 17.1298 110.143 18.0263 109.483 18.6882L102.117 26.0615L87.9916 11.9365L95.3578 4.5632C96.02 3.90119 96.9181 3.5293 97.8544 3.5293C98.7908 3.5293 99.6888 3.90119 100.351 4.5632L109.483 13.695V13.7021ZM97.1234 31.0476L82.9984 16.9226L34.8816 65.0465C34.4929 65.4351 34.2003 65.9091 34.0271 66.4307L28.3418 83.4796C28.2387 83.7904 28.224 84.1238 28.2995 84.4424C28.3749 84.7611 28.5375 85.0524 28.7691 85.284C29.0006 85.5155 29.292 85.6781 29.6107 85.7536C29.9293 85.8291 30.2627 85.8144 30.5735 85.7113L47.6224 80.026C48.1433 79.8548 48.6173 79.5647 49.0066 79.1785L97.1234 31.0476Z" fill="#09203F"/>
<path fill-rule="evenodd" clip-rule="evenodd" d="M7.0625 95.3438C7.0625 98.1534 8.17862 100.848 10.1653 102.835C12.1521 104.821 14.8466 105.937 17.6562 105.938H95.3438C98.1534 105.937 100.848 104.821 102.835 102.835C104.821 100.848 105.937 98.1534 105.938 95.3438V52.9688C105.938 52.0322 105.565 51.134 104.903 50.4718C104.241 49.8095 103.343 49.4375 102.406 49.4375C101.47 49.4375 100.572 49.8095 99.9093 50.4718C99.247 51.134 98.875 52.0322 98.875 52.9688V95.3438C98.875 96.2803 98.503 97.1785 97.8407 97.8407C97.1785 98.503 96.2803 98.875 95.3438 98.875H17.6562C16.7197 98.875 15.8215 98.503 15.1593 97.8407C14.497 97.1785 14.125 96.2803 14.125 95.3438V17.6562C14.125 16.7197 14.497 15.8215 15.1593 15.1593C15.8215 14.497 16.7197 14.125 17.6562 14.125H63.5625C64.499 14.125 65.3972 13.753 66.0595 13.0907C66.7217 12.4285 67.0938 11.5303 67.0938 10.5938C67.0938 9.6572 66.7217 8.75902 66.0595 8.09678C65.3972 7.43454 64.499 7.0625 63.5625 7.0625H17.6562C14.8466 7.0625 12.1521 8.17862 10.1653 10.1653C8.17862 12.1521 7.0625 14.8466 7.0625 17.6562V95.3438Z" fill="#09203F"/>
</svg>
