<svg width="107" height="95" viewBox="0 0 107 95" fill="none" xmlns="http://www.w3.org/2000/svg">
<path d="M60.0671 4.47233C59.4051 3.31917 58.4505 2.36109 57.2998 1.69483C56.1491 1.02858 54.843 0.677734 53.5133 0.677734C52.1837 0.677734 50.8775 1.02858 49.7268 1.69483C48.5761 2.36109 47.6216 3.31917 46.9596 4.47233L1.1034 82.4954C-1.95279 87.6983 1.71196 94.3122 7.65715 94.3122H99.3628C105.308 94.3122 108.979 87.6916 105.917 82.4954L60.0671 4.47233ZM53.5 27.4372C57.0778 27.4372 59.8798 30.5268 59.5187 34.0913L57.1781 57.5443C57.0994 58.4657 56.6779 59.324 55.9968 59.9494C55.3157 60.5748 54.4247 60.9219 53.5 60.9219C52.5753 60.9219 51.6842 60.5748 51.0031 59.9494C50.322 59.324 49.9005 58.4657 49.8218 57.5443L47.4812 34.0913C47.3972 33.2502 47.4902 32.4009 47.7544 31.5979C48.0185 30.795 48.4479 30.0564 49.0149 29.4295C49.582 28.8026 50.274 28.3015 51.0465 27.9584C51.8189 27.6152 52.6547 27.4377 53.5 27.4372ZM53.5133 67.5622C55.287 67.5622 56.988 68.2668 58.2421 69.5209C59.4963 70.7751 60.2008 72.4761 60.2008 74.2497C60.2008 76.0233 59.4963 77.7243 58.2421 78.9785C56.988 80.2326 55.287 80.9372 53.5133 80.9372C51.7397 80.9372 50.0387 80.2326 48.7846 78.9785C47.5304 77.7243 46.8258 76.0233 46.8258 74.2497C46.8258 72.4761 47.5304 70.7751 48.7846 69.5209C50.0387 68.2668 51.7397 67.5622 53.5133 67.5622Z" fill="#E92D2D"/>
</svg>
