<svg width="99" height="99" viewBox="0 0 99 99" fill="none" xmlns="http://www.w3.org/2000/svg">
<g clip-path="url(#clip0_342_9250)">
<path d="M86.625 6.1875C88.266 6.1875 89.8398 6.8394 91.0002 7.99978C92.1606 9.16016 92.8125 10.734 92.8125 12.375V86.625C92.8125 88.266 92.1606 89.8398 91.0002 91.0002C89.8398 92.1606 88.266 92.8125 86.625 92.8125H12.375C10.734 92.8125 9.16016 92.1606 7.99978 91.0002C6.8394 89.8398 6.1875 88.266 6.1875 86.625V12.375C6.1875 10.734 6.8394 9.16016 7.99978 7.99978C9.16016 6.8394 10.734 6.1875 12.375 6.1875H86.625ZM12.375 0C9.09295 0 5.94532 1.30379 3.62455 3.62455C1.30379 5.94532 0 9.09295 0 12.375L0 86.625C0 89.9071 1.30379 93.0547 3.62455 95.3754C5.94532 97.6962 9.09295 99 12.375 99H86.625C89.9071 99 93.0547 97.6962 95.3754 95.3754C97.6962 93.0547 99 89.9071 99 86.625V12.375C99 9.09295 97.6962 5.94532 95.3754 3.62455C93.0547 1.30379 89.9071 0 86.625 0L12.375 0Z" fill="#09203F"/>
<path d="M28.747 28.7468C29.0344 28.4587 29.3758 28.2301 29.7517 28.0741C30.1275 27.9182 30.5305 27.8379 30.9374 27.8379C31.3443 27.8379 31.7473 27.9182 32.1231 28.0741C32.499 28.2301 32.8404 28.4587 33.1278 28.7468L49.4999 45.1251L65.872 28.7468C66.1597 28.4591 66.5012 28.231 66.877 28.0753C67.2528 27.9196 67.6556 27.8395 68.0624 27.8395C68.4692 27.8395 68.872 27.9196 69.2478 28.0753C69.6237 28.231 69.9651 28.4591 70.2528 28.7468C70.5404 29.0344 70.7686 29.3759 70.9243 29.7517C71.0799 30.1276 71.1601 30.5304 71.1601 30.9372C71.1601 31.344 71.0799 31.7468 70.9243 32.1226C70.7686 32.4984 70.5404 32.8399 70.2528 33.1275L53.8745 49.4997L70.2528 65.8718C70.5404 66.1594 70.7686 66.5009 70.9243 66.8767C71.0799 67.2526 71.1601 67.6554 71.1601 68.0622C71.1601 68.469 71.0799 68.8718 70.9243 69.2476C70.7686 69.6234 70.5404 69.9649 70.2528 70.2525C69.9651 70.5402 69.6237 70.7684 69.2478 70.924C68.872 71.0797 68.4692 71.1598 68.0624 71.1598C67.6556 71.1598 67.2528 71.0797 66.877 70.924C66.5012 70.7684 66.1597 70.5402 65.872 70.2525L49.4999 53.8742L33.1278 70.2525C32.8401 70.5402 32.4987 70.7684 32.1228 70.924C31.747 71.0797 31.3442 71.1598 30.9374 71.1598C30.5306 71.1598 30.1278 71.0797 29.752 70.924C29.3762 70.7684 29.0347 70.5402 28.747 70.2525C28.4594 69.9649 28.2312 69.6234 28.0755 69.2476C27.9199 68.8718 27.8398 68.469 27.8398 68.0622C27.8398 67.6554 27.9199 67.2526 28.0755 66.8767C28.2312 66.5009 28.4594 66.1594 28.747 65.8718L45.1254 49.4997L28.747 33.1275C28.4589 32.8402 28.2303 32.4988 28.0744 32.1229C27.9184 31.747 27.8381 31.3441 27.8381 30.9372C27.8381 30.5302 27.9184 30.1273 28.0744 29.7514C28.2303 29.3756 28.4589 29.0342 28.747 28.7468Z" fill="#09203F"/>
</g>
<defs>
<clipPath id="clip0_342_9250">
<rect width="99" height="99" fill="white"/>
</clipPath>
</defs>
</svg>
